<svg id="Layer_1" data-name="Layer 1" xmlns="http://www.w3.org/2000/svg" viewBox="0 0 122.88 112.13"><title>society</title><path d="M36,72.55a1.44,1.44,0,1,1-2.88,0V35.4H2.88v71.08h5v2.88H1.44A1.44,1.44,0,0,1,0,107.92V34.63a2.15,2.15,0,0,1,.62-1.5,2.12,2.12,0,0,1,1.5-.62h31v-30A2.49,2.49,0,0,1,33.86.75h0A2.52,2.52,0,0,1,35.65,0H87a2.52,2.52,0,0,1,1.79.74l.11.12a2.55,2.55,0,0,1,.64,1.67v30h31.22a2.11,2.11,0,0,1,1.49.62h0a2.11,2.11,0,0,1,.62,1.49v73.29a1.44,1.44,0,0,1-1.44,1.44H112.3v-2.88H120V35.4H89.53V72.13a1.44,1.44,0,0,1-2.88,0V2.88H36V72.55ZM42.38,12.7H51a.26.26,0,0,1,.25.24v8.59a.26.26,0,0,1-.25.24H42.38a.23.23,0,0,1-.23-.24V12.94a.23.23,0,0,1,.23-.24Zm29.26,0h8.58a.24.24,0,0,1,.24.24v8.59a.24.24,0,0,1-.24.24H71.87a.25.25,0,0,1-.25-.24V12.94a.25.25,0,0,1,.25-.24h-.23Zm-14.77,0h8.58a.24.24,0,0,1,.24.24v8.59a.24.24,0,0,1-.24.24H56.87a.25.25,0,0,1-.24-.24V12.94a.25.25,0,0,1,.24-.24Zm40,57.58h16.38v5.06H96.91V70.28Zm-87.44,0H25.85v5.06H9.47V70.28Zm84,31.05a50,50,0,0,1,8.12,3.64c3.11,1.94,4,4.21,4.39,7.16h-20V108c2.79.36,8.14-1.28,7.53-6.66ZM26.08,102c1.48,4.35,7.73,4.6,9.14,0a4.59,4.59,0,0,0,1.34.77,11.66,11.66,0,0,0-.51,1.25,15.18,15.18,0,0,0-.75,3.77h0a.34.34,0,0,1,0,.1L35,112.13H14.8l.27-2.73a6.22,6.22,0,0,1,1.13-3.32,4.84,4.84,0,0,1,1.51-1.28c1.82-1,6.72-1.34,8.37-2.83ZM24.84,91.42a1.33,1.33,0,0,0-.57.16.47.47,0,0,0-.17.2.86.86,0,0,0-.06.34,3.23,3.23,0,0,0,.66,1.59h0L26.12,96A12.16,12.16,0,0,0,28,98.45a3.85,3.85,0,0,0,2.65,1.07,3.93,3.93,0,0,0,2.81-1.11,12.5,12.5,0,0,0,1.94-2.65L37,93.14c.32-.73.42-1.17.32-1.38s-.33-.16-.76-.13a1.26,1.26,0,0,1-.87-.15l.79-2.38a12.4,12.4,0,0,1-7.26-2c-.77-.49-1-1.06-1.78-1a2.61,2.61,0,0,0-1.47.8,3.66,3.66,0,0,0-.84,1.66l.47,2.86a.8.8,0,0,1-.75.06Zm12.61-.71a1.19,1.19,0,0,1,.75.6,2.76,2.76,0,0,1-.3,2.23h0l0,.06-1.61,2.65a13.15,13.15,0,0,1-2.11,2.86,4.86,4.86,0,0,1-3.48,1.38,4.71,4.71,0,0,1-3.31-1.33,12.46,12.46,0,0,1-2.05-2.68L23.9,94.23a4.22,4.22,0,0,1-.82-2.1,1.65,1.65,0,0,1,.15-.78,1.43,1.43,0,0,1,.52-.6,1.42,1.42,0,0,1,.39-.19,34.5,34.5,0,0,1-.06-4,5.94,5.94,0,0,1,.17-.92,5.39,5.39,0,0,1,2.39-3A7,7,0,0,1,27.93,82c2.72-1,6.32-.45,8.25,1.64a5.44,5.44,0,0,1,1.38,3.47l-.11,3.58Zm14.23-10a1.85,1.85,0,0,0-.74.23.69.69,0,0,0-.25.29,1.28,1.28,0,0,0-.09.5,5,5,0,0,0,1,2.37v0h0l2.11,3.36a17.85,17.85,0,0,0,2.81,3.7,5.63,5.63,0,0,0,4,1.59,5.82,5.82,0,0,0,4.18-1.66,18.3,18.3,0,0,0,2.89-4l2.37-3.9c.48-1.09.62-1.75.47-2s-.51-.25-1.21-.18H69a2.27,2.27,0,0,1-1-.23l1.07-3.56c-7.22-.09-13.33-5-15.69-2.43-.56.6-1,.48-1.26,1.54l.75,4.31a1.46,1.46,0,0,1-1.24,0Zm2,15.73c2.89,8.49,11.12,8.23,13.65,0,1.48,1.32,4.34,2,7,2.69,6.47,1.63,8,3.57,8.62,10.3.07.78.15,1.66.23,2.66H37.81l.35-4.58a9.18,9.18,0,0,1,1.69-5,7.12,7.12,0,0,1,2.26-1.91c2.71-1.53,9.06-2,11.53-4.2Zm17-16.8a1.73,1.73,0,0,1,1.12.9c.36.73.22,1.8-.45,3.33h0l0,.09-2.41,4a19.52,19.52,0,0,1-3.15,4.26,7.22,7.22,0,0,1-5.19,2.06,7.05,7.05,0,0,1-4.95-2,19.07,19.07,0,0,1-3.07-4l-2.11-3.36a6.26,6.26,0,0,1-1.22-3.14,2.56,2.56,0,0,1,.22-1.16,2.18,2.18,0,0,1,.78-.9,2.62,2.62,0,0,1,.58-.29,54.84,54.84,0,0,1-.09-5.89,8.26,8.26,0,0,1,.26-1.37,8,8,0,0,1,3.57-4.54,9.21,9.21,0,0,1,1.92-.93c4.05-1.47,9.43-.67,12.31,2.45a8.22,8.22,0,0,1,2.07,5.17l-.15,5.34ZM77.93,98l1.86,0,1.55,0c-1.8-5.55-1.2-10.65,3.14-15a9.72,9.72,0,0,0,5.2,5.8,27.5,27.5,0,0,1,3.9,3.59c.22-.92-.63-2-1.66-3.18a5,5,0,0,1,2.45,2.4,6.65,6.65,0,0,1,.47,4.31,8.86,8.86,0,0,1-.55,2.07h2.57c2.71-5.8,1-14.41-4.55-18.06-1.7-1.12-2.92-1.08-4.92-1.08-2.28,0-3.45.07-5.41,1.37-2.88,1.91-4.66,5.21-5.4,9.79-.15,2.29-.25,6.24,1.35,8.07ZM97.15,58.27h15.9c.13,0,.24.08.24.18v4.7c0,.1-.11.18-.24.18H97.15c-.13,0-.24-.08-.24-.18v-4.7c0-.1.11-.18.24-.18Zm0-12.17h15.9c.13,0,.24.08.24.18V51c0,.1-.11.18-.24.18H97.15c-.13,0-.24-.08-.24-.18v-4.7c0-.1.11-.18.24-.18ZM9.71,58.27h15.9c.13,0,.24.08.24.18v4.7c0,.1-.11.18-.24.18H9.71c-.13,0-.24-.08-.24-.18v-4.7c0-.1.11-.18.24-.18Zm0-12.17h15.9c.13,0,.24.08.24.18V51c0,.1-.11.18-.24.18H9.71c-.13,0-.24-.08-.24-.18v-4.7c0-.1.11-.18.24-.18Zm62,4.87h8.49a.24.24,0,0,1,.24.24V59.7a.24.24,0,0,1-.24.24H71.67a.24.24,0,0,1-.24-.24V51.21a.24.24,0,0,1,.24-.24ZM57.08,51h8.49a.24.24,0,0,1,.24.24V59.7a.24.24,0,0,1-.24.24H57.08a.24.24,0,0,1-.24-.24V51.21a.24.24,0,0,1,.24-.24ZM42.49,51H51a.24.24,0,0,1,.24.24V59.7a.24.24,0,0,1-.24.24H42.49a.24.24,0,0,1-.24-.24V51.21a.24.24,0,0,1,.24-.24ZM71.67,30.72h8.49a.24.24,0,0,1,.24.24v8.49a.24.24,0,0,1-.24.24H71.67a.24.24,0,0,1-.24-.24V31a.24.24,0,0,1,.24-.24Zm-14.59,0h8.49a.24.24,0,0,1,.24.24v8.49a.24.24,0,0,1-.24.24H57.08a.24.24,0,0,1-.24-.24V31a.24.24,0,0,1,.24-.24Zm-14.59,0H51a.24.24,0,0,1,.24.24v8.49a.24.24,0,0,1-.24.24H42.49a.24.24,0,0,1-.24-.24V31a.24.24,0,0,1,.24-.24Z"/></svg>