<?xml version="1.0" encoding="iso-8859-1"?>
<!-- Generator: Adobe Illustrator 19.0.0, SVG Export Plug-In . SVG Version: 6.00 Build 0)  -->
<svg version="1.1" id="Layer_1" xmlns="http://www.w3.org/2000/svg" xmlns:xlink="http://www.w3.org/1999/xlink" x="0px" y="0px"
	 viewBox="0 0 512 512" style="enable-background:new 0 0 512 512;" xml:space="preserve">
<g>
	<path style="fill:#D7DEED;" d="M478.33,144.835h-85.511c-14.168,0-25.653-11.485-25.653-25.653V33.67
		c0-14.168,11.485-25.653,25.653-25.653h85.511c14.168,0,25.653,11.485,25.653,25.653v85.511
		C503.983,133.35,492.498,144.835,478.33,144.835z"/>
	<path style="fill:#D7DEED;" d="M478.33,324.409h-85.511c-14.168,0-25.653-11.485-25.653-25.653v-85.511
		c0-14.168,11.485-25.653,25.653-25.653h85.511c14.168,0,25.653,11.485,25.653,25.653v85.511
		C503.983,312.924,492.498,324.409,478.33,324.409z"/>
	<path style="fill:#D7DEED;" d="M478.33,503.983h-85.511c-14.168,0-25.653-11.485-25.653-25.653v-85.511
		c0-14.168,11.485-25.653,25.653-25.653h85.511c14.168,0,25.653,11.485,25.653,25.653v85.511
		C503.983,492.498,492.498,503.983,478.33,503.983z"/>
</g>
<path d="M478.33,0h-85.511c-18.566,0-33.67,15.105-33.67,33.67v85.511c0,18.566,15.105,33.67,33.67,33.67h85.511
	c18.566,0,33.67-15.105,33.67-33.67V33.67C512,15.105,496.895,0,478.33,0z M495.967,119.182c0,9.725-7.912,17.637-17.637,17.637
	h-85.511c-9.725,0-17.637-7.912-17.637-17.637V33.67c0-9.725,7.912-17.637,17.637-17.637h85.511c9.725,0,17.637,7.912,17.637,17.637
	V119.182z"/>
<path d="M472.661,45.104l-45.639,45.639l-19.985-19.985c-3.131-3.131-8.207-3.131-11.337,0c-3.131,3.131-3.131,8.207,0,11.337
	l25.653,25.653c1.565,1.565,3.617,2.348,5.668,2.348s4.103-0.782,5.668-2.348l51.307-51.307c3.131-3.131,3.131-8.207,0-11.337
	C480.868,41.973,475.791,41.973,472.661,45.104z"/>
<path d="M478.33,179.574h-85.511c-18.566,0-33.67,15.105-33.67,33.67v85.511c0,18.566,15.105,33.67,33.67,33.67h85.511
	c18.566,0,33.67-15.105,33.67-33.67v-85.511C512,194.679,496.895,179.574,478.33,179.574z M495.967,298.756
	c0,9.725-7.912,17.637-17.637,17.637h-85.511c-9.725,0-17.637-7.912-17.637-17.637v-85.511c0-9.725,7.912-17.637,17.637-17.637
	h85.511c9.725,0,17.637,7.912,17.637,17.637V298.756z"/>
<path d="M478.33,359.148h-85.511c-18.566,0-33.67,15.105-33.67,33.67v85.511c0,18.566,15.105,33.67,33.67,33.67h85.511
	c18.566,0,33.67-15.105,33.67-33.67v-85.511C512,374.253,496.895,359.148,478.33,359.148z M495.967,478.33
	c0,9.725-7.912,17.637-17.637,17.637h-85.511c-9.725,0-17.637-7.912-17.637-17.637v-85.511c0-9.725,7.912-17.637,17.637-17.637
	h85.511c9.725,0,17.637,7.912,17.637,17.637V478.33z"/>
<path d="M472.661,404.252l-45.639,45.639l-19.985-19.985c-3.131-3.131-8.207-3.131-11.337,0c-3.131,3.131-3.131,8.207,0,11.337
	l25.653,25.653c1.565,1.565,3.617,2.348,5.668,2.348s4.103-0.782,5.668-2.348l51.307-51.307c3.131-3.131,3.131-8.207,0-11.337
	C480.868,401.122,475.791,401.122,472.661,404.252z"/>
<path d="M8.017,58.789H179.04c4.427,0,8.017-3.589,8.017-8.017s-3.589-8.017-8.017-8.017H8.017C3.589,42.756,0,46.345,0,50.772
	S3.589,58.789,8.017,58.789z"/>
<path d="M307.307,42.756h-94.063c-4.427,0-8.017,3.589-8.017,8.017s3.589,8.017,8.017,8.017h94.063c4.427,0,8.017-3.589,8.017-8.017
	S311.734,42.756,307.307,42.756z"/>
<path d="M307.307,94.063h-34.205c-4.427,0-8.017,3.589-8.017,8.017c0,4.427,3.589,8.017,8.017,8.017h34.205
	c4.427,0,8.017-3.589,8.017-8.017C315.324,97.652,311.734,94.063,307.307,94.063z"/>
<path d="M8.017,110.096h68.409c4.427,0,8.017-3.589,8.017-8.017c0-4.427-3.589-8.017-8.017-8.017H8.017
	C3.589,94.063,0,97.652,0,102.079C0,106.507,3.589,110.096,8.017,110.096z"/>
<path d="M102.614,102.079c0,4.427,3.589,8.017,8.017,8.017h128.267c4.427,0,8.017-3.589,8.017-8.017
	c0-4.427-3.589-8.017-8.017-8.017H110.63C106.203,94.063,102.614,97.652,102.614,102.079z"/>
<path d="M8.017,238.363H179.04c4.427,0,8.017-3.589,8.017-8.017s-3.589-8.017-8.017-8.017H8.017c-4.427,0-8.017,3.589-8.017,8.017
	S3.589,238.363,8.017,238.363z"/>
<path d="M307.307,222.33h-94.063c-4.427,0-8.017,3.589-8.017,8.017s3.589,8.017,8.017,8.017h94.063c4.427,0,8.017-3.589,8.017-8.017
	S311.734,222.33,307.307,222.33z"/>
<path d="M307.307,273.637h-34.205c-4.427,0-8.017,3.589-8.017,8.017c0,4.427,3.589,8.017,8.017,8.017h34.205
	c4.427,0,8.017-3.589,8.017-8.017C315.324,277.226,311.734,273.637,307.307,273.637z"/>
<path d="M8.017,289.67h68.409c4.427,0,8.017-3.589,8.017-8.017c0-4.427-3.589-8.017-8.017-8.017H8.017
	c-4.427,0-8.017,3.589-8.017,8.017C0,286.081,3.589,289.67,8.017,289.67z"/>
<path d="M102.614,281.653c0,4.427,3.589,8.017,8.017,8.017h128.267c4.427,0,8.017-3.589,8.017-8.017
	c0-4.427-3.589-8.017-8.017-8.017H110.63C106.203,273.637,102.614,277.226,102.614,281.653z"/>
<path d="M8.017,417.937H179.04c4.427,0,8.017-3.589,8.017-8.017c0-4.427-3.589-8.017-8.017-8.017H8.017
	c-4.427,0-8.017,3.589-8.017,8.017C0,414.348,3.589,417.937,8.017,417.937z"/>
<path d="M307.307,401.904h-94.063c-4.427,0-8.017,3.589-8.017,8.017c0,4.427,3.589,8.017,8.017,8.017h94.063
	c4.427,0,8.017-3.589,8.017-8.017C315.324,405.493,311.734,401.904,307.307,401.904z"/>
<path d="M307.307,453.211h-34.205c-4.427,0-8.017,3.589-8.017,8.017s3.589,8.017,8.017,8.017h34.205
	c4.427,0,8.017-3.589,8.017-8.017S311.734,453.211,307.307,453.211z"/>
<path d="M76.426,453.211H8.017C3.589,453.211,0,456.8,0,461.228s3.589,8.017,8.017,8.017h68.409c4.427,0,8.017-3.589,8.017-8.017
	S80.853,453.211,76.426,453.211z"/>
<path d="M238.898,453.211H110.63c-4.427,0-8.017,3.589-8.017,8.017s3.589,8.017,8.017,8.017h128.267
	c4.427,0,8.017-3.589,8.017-8.017S243.325,453.211,238.898,453.211z"/>
<path d="M466.896,224.678c-3.131-3.131-8.207-3.131-11.337,0l-19.985,19.985l-19.985-19.985c-3.131-3.131-8.207-3.131-11.337,0
	c-3.131,3.131-3.131,8.207,0,11.337L424.237,256l-19.985,19.985c-3.131,3.131-3.131,8.207,0,11.337
	c1.565,1.565,3.617,2.348,5.668,2.348s4.103-0.782,5.668-2.348l19.985-19.985l19.985,19.985c1.565,1.565,3.617,2.348,5.668,2.348
	s4.103-0.782,5.668-2.348c3.131-3.131,3.131-8.207,0-11.337L446.911,256l19.985-19.985
	C470.027,232.885,470.027,227.808,466.896,224.678z"/>
<g>
</g>
<g>
</g>
<g>
</g>
<g>
</g>
<g>
</g>
<g>
</g>
<g>
</g>
<g>
</g>
<g>
</g>
<g>
</g>
<g>
</g>
<g>
</g>
<g>
</g>
<g>
</g>
<g>
</g>
</svg>
